<svg width="29" height="29" viewBox="0 0 29 29" fill="none" xmlns="http://www.w3.org/2000/svg">
<path d="M25.902 0.531545C26.6107 -0.177157 27.7598 -0.177151 28.4685 0.531545C29.1771 1.24022 29.1771 2.38902 28.4685 3.0977L17.0662 14.4997L28.4685 25.902L28.5329 25.9697C29.1765 26.682 29.155 27.7819 28.4685 28.4685C27.7819 29.155 26.6821 29.1765 25.9697 28.5329L25.902 28.4685L14.4997 17.0661L3.0977 28.4685L3.03003 28.5329C2.31767 29.1764 1.21808 29.1549 0.531546 28.4685C-0.177151 27.7597 -0.177156 26.6107 0.531546 25.902L11.9333 14.4997L0.531546 3.0977L0.467126 3.03003C-0.176502 2.31765 -0.155001 1.21809 0.531546 0.531545C1.21809 -0.155001 2.31765 -0.176502 3.03003 0.467125L3.0977 0.531545L14.4997 11.9333L25.902 0.531545Z" fill="white"/>
</svg>
