<svg width="203" height="225" viewBox="0 0 203 225" fill="none" xmlns="http://www.w3.org/2000/svg">
<rect x="10.9581" y="46.5389" width="140.631" height="172.626" transform="rotate(-13.4548 10.9581 46.5389)" fill="white"/>
<mask id="path-2-outside-1_21_547" maskUnits="userSpaceOnUse" x="-6.05232" y="-5.11685" width="211.828" height="237.724" fill="black">
<rect fill="white" x="-6.05232" y="-5.11685" width="211.828" height="237.724"/>
<path d="M133.952 10.9928C138.378 9.93384 143.043 10.6769 146.922 13.0579C150.801 15.439 153.575 19.263 154.634 23.6892L178.591 123.825C178.944 125.301 178.696 126.856 177.903 128.149C177.109 129.442 175.834 130.367 174.359 130.72C172.883 131.073 171.328 130.825 170.035 130.031C168.742 129.237 167.817 127.963 167.464 126.487L143.507 26.3511C143.154 24.8757 142.23 23.6006 140.937 22.8069C139.644 22.0133 138.089 21.7663 136.614 22.1192L30.9148 47.4071C27.9639 48.113 25.414 49.9622 23.8266 52.548C22.2392 55.1338 21.7443 58.2446 22.4503 61.1954L49.7825 175.439C52.6733 172.7 56.2554 170.738 60.1954 169.795L177.021 141.845C178.496 141.492 180.052 141.74 181.344 142.534C182.637 143.328 183.561 144.603 183.914 146.078L191.9 179.456C192.253 180.932 192.006 182.487 191.212 183.78C190.419 185.073 189.143 185.997 187.668 186.35L115.348 203.652C113.872 204.005 112.317 203.758 111.024 202.965C109.731 202.171 108.806 200.896 108.453 199.421C108.1 197.945 108.348 196.39 109.142 195.097C109.936 193.804 111.211 192.88 112.686 192.527L179.443 176.556L174.119 154.303L62.8574 180.921C59.9066 181.627 57.3565 183.477 55.7692 186.062C54.1818 188.648 53.6869 191.759 54.3929 194.71C55.0989 197.661 56.9481 200.211 59.5338 201.798C62.1195 203.385 65.2305 203.88 68.1812 203.174L90.4332 197.851C91.9085 197.498 93.4639 197.745 94.7567 198.538C96.0496 199.332 96.9747 200.607 97.3277 202.082C97.6807 203.558 97.4328 205.113 96.6391 206.406C95.8454 207.699 94.5703 208.623 93.0949 208.976L70.8429 214.3C64.9412 215.712 58.7197 214.722 53.5481 211.547C48.5384 208.472 44.9109 203.59 43.4053 197.923L43.2664 197.372L11.3239 63.8574C9.91192 57.9556 10.9017 51.7341 14.0765 46.5625C17.2512 41.391 22.3512 37.6926 28.2529 36.2806L133.952 10.9928ZM135.656 116.453C137.131 116.1 138.687 116.348 139.98 117.141C141.272 117.935 142.197 119.209 142.55 120.684C142.903 122.16 142.655 123.715 141.862 125.008C141.068 126.301 139.793 127.226 138.318 127.579L82.6874 140.888C81.212 141.241 79.6564 140.993 78.3636 140.2C77.0707 139.406 76.1456 138.131 75.7926 136.656C75.4398 135.18 75.6879 133.626 76.4815 132.333C77.2751 131.04 78.55 130.115 80.0255 129.762L135.656 116.453ZM141.458 91.5379C142.934 91.1849 144.489 91.4328 145.782 92.2265C147.075 93.0202 148 94.295 148.353 95.7705C148.706 97.2459 148.458 98.8015 147.664 100.094C146.871 101.387 145.596 102.311 144.12 102.664L66.2371 121.297C64.7617 121.65 63.2063 121.403 61.9135 120.61C60.6206 119.816 59.6955 118.541 59.3425 117.066C58.9895 115.59 59.2375 114.035 60.0312 112.742C60.8248 111.449 62.0997 110.524 63.5751 110.171L141.458 91.5379ZM128.149 35.9076C129.624 35.5546 131.18 35.8016 132.473 36.5953C133.766 37.389 134.691 38.6638 135.044 40.1393L143.029 73.5176C143.382 74.993 143.134 76.5486 142.341 77.8414C141.547 79.1343 140.272 80.0594 138.797 80.4124L60.9134 99.0455C59.438 99.3985 57.8825 99.1505 56.5896 98.3569C55.2967 97.5632 54.3716 96.2883 54.0187 94.8129L46.0331 61.4345C45.6801 59.9591 45.928 58.4036 46.7217 57.1107C47.5154 55.8179 48.7905 54.8937 50.2659 54.5407L128.149 35.9076ZM63.8142 86.5882L130.572 70.6168L125.248 48.3639L58.4904 64.3353L63.8142 86.5882Z"/>
</mask>
<path d="M133.952 10.9928C138.378 9.93384 143.043 10.6769 146.922 13.0579C150.801 15.439 153.575 19.263 154.634 23.6892L178.591 123.825C178.944 125.301 178.696 126.856 177.903 128.149C177.109 129.442 175.834 130.367 174.359 130.72C172.883 131.073 171.328 130.825 170.035 130.031C168.742 129.237 167.817 127.963 167.464 126.487L143.507 26.3511C143.154 24.8757 142.23 23.6006 140.937 22.8069C139.644 22.0133 138.089 21.7663 136.614 22.1192L30.9148 47.4071C27.9639 48.113 25.414 49.9622 23.8266 52.548C22.2392 55.1338 21.7443 58.2446 22.4503 61.1954L49.7825 175.439C52.6733 172.7 56.2554 170.738 60.1954 169.795L177.021 141.845C178.496 141.492 180.052 141.74 181.344 142.534C182.637 143.328 183.561 144.603 183.914 146.078L191.9 179.456C192.253 180.932 192.006 182.487 191.212 183.78C190.419 185.073 189.143 185.997 187.668 186.35L115.348 203.652C113.872 204.005 112.317 203.758 111.024 202.965C109.731 202.171 108.806 200.896 108.453 199.421C108.1 197.945 108.348 196.39 109.142 195.097C109.936 193.804 111.211 192.88 112.686 192.527L179.443 176.556L174.119 154.303L62.8574 180.921C59.9066 181.627 57.3565 183.477 55.7692 186.062C54.1818 188.648 53.6869 191.759 54.3929 194.71C55.0989 197.661 56.9481 200.211 59.5338 201.798C62.1195 203.385 65.2305 203.88 68.1812 203.174L90.4332 197.851C91.9085 197.498 93.4639 197.745 94.7567 198.538C96.0496 199.332 96.9747 200.607 97.3277 202.082C97.6807 203.558 97.4328 205.113 96.6391 206.406C95.8454 207.699 94.5703 208.623 93.0949 208.976L70.8429 214.3C64.9412 215.712 58.7197 214.722 53.5481 211.547C48.5384 208.472 44.9109 203.59 43.4053 197.923L43.2664 197.372L11.3239 63.8574C9.91192 57.9556 10.9017 51.7341 14.0765 46.5625C17.2512 41.391 22.3512 37.6926 28.2529 36.2806L133.952 10.9928ZM135.656 116.453C137.131 116.1 138.687 116.348 139.98 117.141C141.272 117.935 142.197 119.209 142.55 120.684C142.903 122.16 142.655 123.715 141.862 125.008C141.068 126.301 139.793 127.226 138.318 127.579L82.6874 140.888C81.212 141.241 79.6564 140.993 78.3636 140.2C77.0707 139.406 76.1456 138.131 75.7926 136.656C75.4398 135.18 75.6879 133.626 76.4815 132.333C77.2751 131.04 78.55 130.115 80.0255 129.762L135.656 116.453ZM141.458 91.5379C142.934 91.1849 144.489 91.4328 145.782 92.2265C147.075 93.0202 148 94.295 148.353 95.7705C148.706 97.2459 148.458 98.8015 147.664 100.094C146.871 101.387 145.596 102.311 144.12 102.664L66.2371 121.297C64.7617 121.65 63.2063 121.403 61.9135 120.61C60.6206 119.816 59.6955 118.541 59.3425 117.066C58.9895 115.59 59.2375 114.035 60.0312 112.742C60.8248 111.449 62.0997 110.524 63.5751 110.171L141.458 91.5379ZM128.149 35.9076C129.624 35.5546 131.18 35.8016 132.473 36.5953C133.766 37.389 134.691 38.6638 135.044 40.1393L143.029 73.5176C143.382 74.993 143.134 76.5486 142.341 77.8414C141.547 79.1343 140.272 80.0594 138.797 80.4124L60.9134 99.0455C59.438 99.3985 57.8825 99.1505 56.5896 98.3569C55.2967 97.5632 54.3716 96.2883 54.0187 94.8129L46.0331 61.4345C45.6801 59.9591 45.928 58.4036 46.7217 57.1107C47.5154 55.8179 48.7905 54.8937 50.2659 54.5407L128.149 35.9076ZM63.8142 86.5882L130.572 70.6168L125.248 48.3639L58.4904 64.3353L63.8142 86.5882Z" fill="black"/>
<path d="M133.952 10.9928L131.625 1.26725L131.625 1.26725L133.952 10.9928ZM146.922 13.0579L152.154 4.53566L152.154 4.53563L146.922 13.0579ZM154.634 23.6892L164.359 21.3624L164.359 21.3623L154.634 23.6892ZM178.591 123.825L168.865 126.152L178.591 123.825ZM177.903 128.149L186.425 133.38L186.425 133.38L177.903 128.149ZM174.359 130.72L176.686 140.445L176.686 140.445L174.359 130.72ZM170.035 130.031L164.803 138.553L164.803 138.553L170.035 130.031ZM143.507 26.3511L153.233 24.0243L153.233 24.024L143.507 26.3511ZM140.937 22.8069L146.169 14.2846L146.169 14.2845L140.937 22.8069ZM136.614 22.1192L134.287 12.3937L134.287 12.3937L136.614 22.1192ZM23.8266 52.548L15.3043 47.3163L15.3043 47.3163L23.8266 52.548ZM49.7825 175.439L40.0569 177.766L44.0869 194.611L56.6601 182.698L49.7825 175.439ZM177.021 141.845L174.694 132.12L174.694 132.12L177.021 141.845ZM181.344 142.534L186.577 134.012L186.576 134.012L181.344 142.534ZM191.212 183.78L199.735 189.012L199.735 189.011L191.212 183.78ZM187.668 186.35L189.995 196.076L189.995 196.075L187.668 186.35ZM111.024 202.965L105.792 211.487L105.793 211.487L111.024 202.965ZM108.453 199.421L98.7276 201.747L98.7276 201.747L108.453 199.421ZM109.142 195.097L100.62 189.865L100.62 189.865L109.142 195.097ZM179.443 176.556L181.77 186.281L191.495 183.954L189.168 174.229L179.443 176.556ZM174.119 154.303L183.844 151.976L181.518 142.25L171.792 144.577L174.119 154.303ZM62.8574 180.921L65.1841 190.647L62.8574 180.921ZM55.7692 186.062L47.247 180.83L47.2469 180.831L55.7692 186.062ZM54.3929 194.71L44.6673 197.037L44.6673 197.037L54.3929 194.71ZM59.5338 201.798L54.3021 210.32L54.3024 210.32L59.5338 201.798ZM94.7567 198.538L99.9885 190.016L99.9883 190.016L94.7567 198.538ZM97.3277 202.082L107.053 199.756L107.053 199.755L97.3277 202.082ZM96.6391 206.406L105.161 211.638L105.161 211.638L96.6391 206.406ZM53.5481 211.547L48.3163 220.069L48.3164 220.069L53.5481 211.547ZM43.4053 197.923L33.7085 200.366L33.7241 200.428L33.7405 200.49L43.4053 197.923ZM43.2664 197.372L33.5409 199.698L33.5549 199.757L33.5696 199.815L43.2664 197.372ZM11.3239 63.8574L1.59833 66.1841L11.3239 63.8574ZM14.0765 46.5625L5.55419 41.3308L5.55419 41.3308L14.0765 46.5625ZM28.2529 36.2806L30.5796 46.0062L28.2529 36.2806ZM135.656 116.453L137.983 126.178L135.656 116.453ZM139.98 117.141L145.211 108.619L145.211 108.619L139.98 117.141ZM142.55 120.684L152.276 118.358L152.276 118.357L142.55 120.684ZM141.862 125.008L150.384 130.24L150.384 130.24L141.862 125.008ZM78.3636 140.2L73.1319 148.722L73.1319 148.722L78.3636 140.2ZM75.7926 136.656L66.0669 138.982L66.0671 138.983L75.7926 136.656ZM76.4815 132.333L67.9592 127.101L67.9591 127.101L76.4815 132.333ZM80.0255 129.762L77.6987 120.036L80.0255 129.762ZM141.458 91.5379L143.785 101.263L141.458 91.5379ZM145.782 92.2265L151.014 83.7042L151.014 83.7042L145.782 92.2265ZM148.353 95.7705L158.079 93.4439L158.079 93.4437L148.353 95.7705ZM147.664 100.094L156.187 105.326L156.187 105.326L147.664 100.094ZM61.9135 120.61L56.6818 129.132L56.6822 129.132L61.9135 120.61ZM59.3425 117.066L49.617 119.393L49.6171 119.393L59.3425 117.066ZM60.0312 112.742L51.509 107.51L51.5089 107.51L60.0312 112.742ZM63.5751 110.171L61.2484 100.445L63.5751 110.171ZM128.149 35.9076L125.822 26.1821L128.149 35.9076ZM132.473 36.5953L137.704 28.073L137.704 28.0729L132.473 36.5953ZM142.341 77.8414L150.863 83.0731L150.863 83.073L142.341 77.8414ZM56.5896 98.3569L51.3579 106.879L51.3579 106.879L56.5896 98.3569ZM54.0187 94.8129L44.2931 97.1397L54.0187 94.8129ZM46.0331 61.4345L55.7586 59.1077L46.0331 61.4345ZM46.7217 57.1107L38.1996 51.8788L38.1994 51.879L46.7217 57.1107ZM50.2659 54.5407L52.5927 64.2662L50.2659 54.5407ZM63.8142 86.5882L54.0887 88.915L56.4155 98.6405L66.141 96.3137L63.8142 86.5882ZM130.572 70.6168L132.899 80.3423L142.624 78.0156L140.297 68.29L130.572 70.6168ZM125.248 48.3639L134.974 46.0372L132.647 36.3116L122.921 38.6384L125.248 48.3639ZM58.4904 64.3353L56.1636 54.6098L46.438 56.9366L48.7648 66.6621L58.4904 64.3353ZM133.952 10.9928L136.278 20.7183C138.125 20.2766 140.071 20.5864 141.69 21.5802L146.922 13.0579L152.154 4.53563C146.015 0.767431 138.631 -0.408938 131.625 1.26725L133.952 10.9928ZM146.922 13.0579L141.69 21.5802C143.309 22.574 144.466 24.1696 144.908 26.016L154.634 23.6892L164.359 21.3623C162.683 14.3563 158.292 8.30396 152.154 4.53566L146.922 13.0579ZM154.634 23.6892L144.908 26.016L168.865 126.152L178.591 123.825L188.316 121.498L164.359 21.3624L154.634 23.6892ZM178.591 123.825L168.865 126.152C168.601 125.05 168.785 123.887 169.38 122.918L177.903 128.149L186.425 133.38C188.608 129.825 189.286 125.551 188.316 121.498L178.591 123.825ZM177.903 128.149L169.381 122.917C169.974 121.951 170.927 121.259 172.032 120.994L174.359 130.72L176.686 140.445C180.742 139.475 184.245 136.933 186.425 133.38L177.903 128.149ZM174.359 130.72L172.032 120.994C173.138 120.73 174.301 120.916 175.267 121.509L170.035 130.031L164.803 138.553C168.355 140.734 172.629 141.416 176.686 140.445L174.359 130.72ZM170.035 130.031L175.267 121.509C176.233 122.102 176.925 123.055 177.19 124.16L167.464 126.487L157.739 128.814C158.709 132.87 161.251 136.373 164.803 138.553L170.035 130.031ZM167.464 126.487L177.19 124.16L153.233 24.0243L143.507 26.3511L133.782 28.6779L157.739 128.814L167.464 126.487ZM143.507 26.3511L153.233 24.024C152.263 19.9726 149.725 16.4675 146.169 14.2846L140.937 22.8069L135.705 31.3292C134.735 30.7336 134.045 29.7789 133.782 28.6782L143.507 26.3511ZM140.937 22.8069L146.169 14.2845C142.613 12.1019 138.339 11.4243 134.287 12.3937L136.614 22.1192L138.94 31.8448C137.839 32.1082 136.675 31.9246 135.706 31.3292L140.937 22.8069ZM136.614 22.1192L134.287 12.3937L28.588 37.6815L30.9148 47.4071L33.2416 57.1326L138.94 31.8448L136.614 22.1192ZM30.9148 47.4071L28.588 37.6815C23.0585 39.0044 18.2796 42.4696 15.3043 47.3163L23.8266 52.548L32.3489 57.7797C32.5483 57.4548 32.8694 57.2216 33.2416 57.1326L30.9148 47.4071ZM23.8266 52.548L15.3043 47.3163C12.329 52.163 11.4019 57.9927 12.7248 63.5222L22.4503 61.1954L32.1758 58.8686C32.0868 58.4964 32.1494 58.1046 32.3489 57.7797L23.8266 52.548ZM22.4503 61.1954L12.7248 63.5222L40.0569 177.766L49.7825 175.439L59.508 173.112L32.1758 58.8686L22.4503 61.1954ZM49.7825 175.439L56.6601 182.698C58.2893 181.155 60.3061 180.051 62.5222 179.521L60.1954 169.795L57.8686 160.069C52.2047 161.425 47.0573 164.246 42.9048 168.18L49.7825 175.439ZM60.1954 169.795L62.5222 179.521L179.347 151.571L177.021 141.845L174.694 132.12L57.8686 160.069L60.1954 169.795ZM177.021 141.845L179.347 151.571C178.242 151.835 177.079 151.649 176.113 151.056L181.344 142.534L186.576 134.012C183.024 131.831 178.75 131.149 174.694 132.12L177.021 141.845ZM181.344 142.534L176.112 151.056C175.143 150.461 174.452 149.506 174.189 148.405L183.914 146.078L193.64 143.751C192.67 139.699 190.131 136.194 186.577 134.012L181.344 142.534ZM183.914 146.078L174.189 148.405L182.174 181.783L191.9 179.456L201.626 177.13L193.64 143.751L183.914 146.078ZM191.9 179.456L182.174 181.783C181.911 180.682 182.095 179.518 182.69 178.549L191.212 183.78L199.735 189.011C201.917 185.456 202.595 181.182 201.626 177.13L191.9 179.456ZM191.212 183.78L182.69 178.548C183.286 177.578 184.24 176.888 185.341 176.625L187.668 186.35L189.995 196.075C194.047 195.106 197.552 192.568 199.735 189.012L191.212 183.78ZM187.668 186.35L185.341 176.624L113.021 193.927L115.348 203.652L117.675 213.378L189.995 196.076L187.668 186.35ZM115.348 203.652L113.021 193.927C114.122 193.663 115.286 193.847 116.256 194.442L111.024 202.965L105.793 211.487C109.348 213.669 113.622 214.347 117.675 213.378L115.348 203.652ZM111.024 202.965L116.256 194.442C117.222 195.035 117.914 195.988 118.179 197.094L108.453 199.421L98.7276 201.747C99.6981 205.804 102.241 209.306 105.792 211.487L111.024 202.965ZM108.453 199.421L118.179 197.094C118.443 198.199 118.257 199.362 117.664 200.328L109.142 195.097L100.62 189.865C98.439 193.417 97.7573 197.691 98.7276 201.747L108.453 199.421ZM109.142 195.097L117.664 200.329C117.069 201.298 116.114 201.989 115.013 202.252L112.686 192.527L110.359 182.801C106.307 183.771 102.802 186.31 100.62 189.865L109.142 195.097ZM112.686 192.527L115.013 202.252L181.77 186.281L179.443 176.556L177.116 166.83L110.359 182.801L112.686 192.527ZM179.443 176.556L189.168 174.229L183.844 151.976L174.119 154.303L164.393 156.63L169.717 178.882L179.443 176.556ZM174.119 154.303L171.792 144.577L60.5306 171.196L62.8574 180.921L65.1841 190.647L176.446 164.028L174.119 154.303ZM62.8574 180.921L60.5306 171.196C55.001 172.519 50.2222 175.984 47.247 180.83L55.7692 186.062L64.2913 191.294C64.4909 190.969 64.8121 190.736 65.1841 190.647L62.8574 180.921ZM55.7692 186.062L47.2469 180.831C44.2716 185.677 43.3444 191.507 44.6673 197.037L54.3929 194.71L64.1184 192.383C64.0294 192.011 64.092 191.619 64.2914 191.294L55.7692 186.062ZM54.3929 194.71L44.6673 197.037C45.9903 202.566 49.4554 207.345 54.3021 210.32L59.5338 201.798L64.7655 193.276C64.4407 193.076 64.2075 192.755 64.1184 192.383L54.3929 194.71ZM59.5338 201.798L54.3024 210.32C59.1486 213.295 64.9784 214.223 70.508 212.9L68.1812 203.174L65.8545 193.449C65.4826 193.538 65.0904 193.475 64.7653 193.276L59.5338 201.798ZM68.1812 203.174L70.508 212.9L92.7599 207.576L90.4332 197.851L88.1064 188.125L65.8545 193.449L68.1812 203.174ZM90.4332 197.851L92.7599 207.576C91.6586 207.84 90.4949 207.656 89.5252 207.061L94.7567 198.538L99.9883 190.016C96.4329 187.833 92.1584 187.156 88.1064 188.125L90.4332 197.851ZM94.7567 198.538L89.525 207.061C88.5588 206.467 87.8666 205.514 87.6022 204.409L97.3277 202.082L107.053 199.755C106.083 195.699 103.54 192.197 99.9885 190.016L94.7567 198.538ZM97.3277 202.082L87.6022 204.409C87.3377 203.304 87.5237 202.141 88.1168 201.174L96.6391 206.406L105.161 211.638C107.342 208.086 108.024 203.812 107.053 199.756L97.3277 202.082ZM96.6391 206.406L88.1168 201.174C88.7122 200.205 89.667 199.514 90.7681 199.251L93.0949 208.976L95.4216 218.702C99.4736 217.732 102.979 215.193 105.161 211.638L96.6391 206.406ZM93.0949 208.976L90.7681 199.251L68.5162 204.574L70.8429 214.3L73.1697 224.025L95.4216 218.702L93.0949 208.976ZM70.8429 214.3L68.5162 204.574C65.1931 205.369 61.6905 204.812 58.7798 203.025L53.5481 211.547L48.3164 220.069C55.7488 224.632 64.6894 226.054 73.1697 224.025L70.8429 214.3ZM53.5481 211.547L58.7799 203.025C55.9598 201.294 53.9176 198.546 53.0701 195.355L43.4053 197.923L33.7405 200.49C35.9041 208.635 41.117 215.65 48.3163 220.069L53.5481 211.547ZM43.4053 197.923L53.1022 195.479L52.9633 194.928L43.2664 197.372L33.5696 199.815L33.7085 200.366L43.4053 197.923ZM43.2664 197.372L52.992 195.045L21.0494 61.5306L11.3239 63.8574L1.59833 66.1841L33.5409 199.698L43.2664 197.372ZM11.3239 63.8574L21.0494 61.5306C20.2544 58.2075 20.8119 54.7049 22.5987 51.7942L14.0765 46.5625L5.55419 41.3308C0.991516 48.7633 -0.430542 57.7038 1.59833 66.1841L11.3239 63.8574ZM14.0765 46.5625L22.5987 51.7942C24.3856 48.8836 27.2566 46.8012 30.5796 46.0062L28.2529 36.2806L25.9261 26.5551C17.4457 28.584 10.1169 33.8984 5.55419 41.3308L14.0765 46.5625ZM28.2529 36.2806L30.5796 46.0062L136.278 20.7183L133.952 10.9928L131.625 1.26725L25.9261 26.5551L28.2529 36.2806ZM135.656 116.453L137.983 126.178C136.877 126.443 135.714 126.257 134.748 125.664L139.98 117.141L145.211 108.619C141.659 106.439 137.385 105.757 133.329 106.727L135.656 116.453ZM139.98 117.141L134.748 125.663C133.783 125.071 133.09 124.118 132.825 123.012L142.55 120.684L152.276 118.357C151.305 114.3 148.762 110.799 145.211 108.619L139.98 117.141ZM142.55 120.684L132.825 123.011C132.56 121.906 132.746 120.743 133.339 119.776L141.862 125.008L150.384 130.24C152.564 126.688 153.246 122.414 152.276 118.358L142.55 120.684ZM141.862 125.008L133.339 119.776C133.932 118.81 134.886 118.118 135.991 117.854L138.318 127.579L140.644 137.305C144.701 136.334 148.203 133.792 150.384 130.24L141.862 125.008ZM138.318 127.579L135.991 117.854L80.3606 131.163L82.6874 140.888L85.0142 150.614L140.644 137.305L138.318 127.579ZM82.6874 140.888L80.3606 131.163C81.466 130.898 82.6291 131.084 83.5952 131.677L78.3636 140.2L73.1319 148.722C76.6837 150.902 80.9579 151.584 85.0142 150.614L82.6874 140.888ZM78.3636 140.2L83.5953 131.677C84.5614 132.271 85.2537 133.224 85.5182 134.329L75.7926 136.656L66.0671 138.983C67.0375 143.039 69.5799 146.542 73.1319 148.722L78.3636 140.2ZM75.7926 136.656L85.5183 134.33C85.7829 135.436 85.5962 136.599 85.0038 137.564L76.4815 132.333L67.9591 127.101C65.7795 130.652 65.0966 134.925 66.0669 138.982L75.7926 136.656ZM76.4815 132.333L85.0037 137.565C84.4106 138.531 83.4576 139.223 82.3522 139.487L80.0255 129.762L77.6987 120.036C73.6425 121.007 70.1397 123.549 67.9592 127.101L76.4815 132.333ZM80.0255 129.762L82.3522 139.487L137.983 126.178L135.656 116.453L133.329 106.727L77.6987 120.036L80.0255 129.762ZM141.458 91.5379L143.785 101.263C142.68 101.528 141.517 101.342 140.55 100.749L145.782 92.2265L151.014 83.7042C147.462 81.5238 143.188 80.8419 139.132 81.8123L141.458 91.5379ZM145.782 92.2265L140.55 100.749C139.584 100.156 138.892 99.2026 138.628 98.0973L148.353 95.7705L158.079 93.4437C157.108 89.3875 154.566 85.8847 151.014 83.7042L145.782 92.2265ZM148.353 95.7705L138.627 98.097C138.363 96.992 138.549 95.8289 139.142 94.8626L147.664 100.094L156.187 105.326C158.367 101.774 159.049 97.4998 158.079 93.4439L148.353 95.7705ZM147.664 100.094L139.142 94.8622C139.738 93.8928 140.692 93.2023 141.793 92.9388L144.12 102.664L146.447 112.39C150.499 111.42 154.004 108.881 156.187 105.326L147.664 100.094ZM144.12 102.664L141.793 92.9388L63.9103 111.572L66.2371 121.297L68.5639 131.023L146.447 112.39L144.12 102.664ZM66.2371 121.297L63.9103 111.572C65.0118 111.308 66.1754 111.492 67.1448 112.087L61.9135 120.61L56.6822 129.132C60.2373 131.314 64.5117 131.992 68.5639 131.023L66.2371 121.297ZM61.9135 120.61L67.1452 112.087C68.1115 112.681 68.8036 113.634 69.068 114.739L59.3425 117.066L49.6171 119.393C50.5875 123.449 53.1298 126.951 56.6818 129.132L61.9135 120.61ZM59.3425 117.066L69.0681 114.739C69.3325 115.844 69.1465 117.007 68.5534 117.974L60.0312 112.742L51.5089 107.51C49.3284 111.062 48.6466 115.336 49.617 119.393L59.3425 117.066ZM60.0312 112.742L68.5534 117.974C67.9603 118.94 67.0074 119.632 65.9019 119.897L63.5751 110.171L61.2484 100.445C57.1921 101.416 53.6894 103.958 51.509 107.51L60.0312 112.742ZM63.5751 110.171L65.9019 119.897L143.785 101.263L141.458 91.5379L139.132 81.8123L61.2484 100.445L63.5751 110.171ZM128.149 35.9076L130.476 45.6331C129.375 45.8966 128.211 45.7129 127.241 45.1176L132.473 36.5953L137.704 28.0729C134.149 25.8904 129.874 25.2126 125.822 26.1821L128.149 35.9076ZM132.473 36.5953L127.241 45.1175C126.275 44.5244 125.583 43.5714 125.318 42.466L135.044 40.1393L144.769 37.8125C143.799 33.7563 141.256 30.2535 137.704 28.073L132.473 36.5953ZM135.044 40.1393L125.318 42.466L133.304 75.8444L143.029 73.5176L152.755 71.1908L144.769 37.8125L135.044 40.1393ZM143.029 73.5176L133.304 75.8444C133.039 74.7389 133.225 73.5758 133.818 72.6098L142.341 77.8414L150.863 83.073C153.043 79.5213 153.725 75.2471 152.755 71.1908L143.029 73.5176ZM142.341 77.8414L133.818 72.6097C134.411 71.6436 135.364 70.9513 136.47 70.6868L138.797 80.4124L141.123 90.1379C145.18 89.1675 148.682 86.6251 150.863 83.0731L142.341 77.8414ZM138.797 80.4124L136.47 70.6868L58.5867 89.3199L60.9134 99.0455L63.2402 108.771L141.123 90.1379L138.797 80.4124ZM60.9134 99.0455L58.5867 89.3199C59.692 89.0555 60.8552 89.2415 61.8213 89.8346L56.5896 98.3569L51.3579 106.879C54.9098 109.06 59.184 109.741 63.2402 108.771L60.9134 99.0455ZM56.5896 98.3569L61.8214 89.8346C62.7875 90.4277 63.4797 91.3807 63.7442 92.4861L54.0187 94.8129L44.2931 97.1397C45.2636 101.196 47.806 104.699 51.3579 106.879L56.5896 98.3569ZM54.0187 94.8129L63.7442 92.4861L55.7586 59.1077L46.0331 61.4345L36.3075 63.7613L44.2931 97.1397L54.0187 94.8129ZM46.0331 61.4345L55.7586 59.1077C56.0231 60.2131 55.8371 61.3763 55.244 62.3424L46.7217 57.1107L38.1994 51.879C36.019 55.4309 35.3371 59.7051 36.3075 63.7613L46.0331 61.4345ZM46.7217 57.1107L55.2438 62.3426C54.6486 63.3122 53.694 64.0027 52.5927 64.2662L50.2659 54.5407L47.9391 44.8152C43.8871 45.7846 40.3822 48.3235 38.1996 51.8788L46.7217 57.1107ZM50.2659 54.5407L52.5927 64.2662L130.476 45.6331L128.149 35.9076L125.822 26.1821L47.9391 44.8152L50.2659 54.5407ZM63.8142 86.5882L66.141 96.3137L132.899 80.3423L130.572 70.6168L128.245 60.8913L61.4875 76.8627L63.8142 86.5882ZM130.572 70.6168L140.297 68.29L134.974 46.0372L125.248 48.3639L115.522 50.6907L120.846 72.9436L130.572 70.6168ZM125.248 48.3639L122.921 38.6384L56.1636 54.6098L58.4904 64.3353L60.8171 74.0609L127.575 58.0895L125.248 48.3639ZM58.4904 64.3353L48.7648 66.6621L54.0887 88.915L63.8142 86.5882L73.5398 84.2614L68.2159 62.0085L58.4904 64.3353Z" fill="white" mask="url(#path-2-outside-1_21_547)"/>
</svg>
