<svg width="30" height="30" viewBox="0 0 30 30" fill="none" xmlns="http://www.w3.org/2000/svg">
<path d="M26.9337 27.8256C26.9337 28.9687 26.0072 29.8954 24.8642 29.8954H5.24041C4.09743 29.8954 3.1709 28.9687 3.1709 27.8256V13.4146C3.1709 12.7796 3.6856 12.2649 4.32063 12.2649C4.95565 12.2649 5.47035 12.7796 5.47035 13.4146V27.5957H24.6342V13.4146C24.6342 12.7796 25.1489 12.2649 25.7839 12.2649C26.419 12.2649 26.9337 12.7796 26.9337 13.4146V27.8256Z" fill="white"/>
<path d="M10.8364 22.6133V13.4146C10.8364 12.7796 11.3511 12.2649 11.9862 12.2649C12.6014 12.2649 13.1037 12.748 13.1344 13.3555L13.1359 13.4146V22.6133L13.1344 22.6724C13.1036 23.2799 12.6013 23.763 11.9862 23.763C11.371 23.763 10.8687 23.2799 10.8379 22.6724L10.8364 22.6133Z" fill="white"/>
<path d="M16.9689 22.6133V13.4146C16.9689 12.7796 17.4836 12.2649 18.1186 12.2649C18.7338 12.2649 19.2361 12.748 19.2669 13.3555L19.2683 13.4146V22.6133L19.2669 22.6724C19.236 23.2799 18.7338 23.763 18.1186 23.763C17.5034 23.763 17.0012 23.2799 16.9703 22.6724L16.9689 22.6133Z" fill="white"/>
<path d="M10.0696 6.13214H20.0348V2.29944H10.0696V6.13214ZM22.3345 6.13214H28.8502L28.9093 6.13389C29.5169 6.16469 30 6.66697 30 7.28215C29.9999 7.8973 29.5168 8.39962 28.9093 8.43041L28.8502 8.43187H1.25446C0.619462 8.43187 0.10478 7.91714 0.104736 7.28215C0.104736 6.64713 0.619434 6.13214 1.25446 6.13214H7.77017V2.0695C7.77021 0.926527 8.69671 6.541e-05 9.83968 0H20.2647C21.4079 0 22.3345 0.926524 22.3345 2.0695V6.13214Z" fill="white"/>
</svg>
