<svg width="31" height="31" viewBox="0 0 31 31" fill="none" xmlns="http://www.w3.org/2000/svg">
<path d="M29.1781 28.0112L29.2381 28.0127C29.8548 28.044 30.3451 28.5538 30.3451 29.1783C30.3451 29.8027 29.8548 30.3125 29.2381 30.3438L29.1781 30.3453H1.16703C0.522444 30.3453 0 29.8228 0 29.1783C0 28.5337 0.522444 28.0112 1.16703 28.0112H29.1781Z" fill="white"/>
<path d="M19.1376 0.300292C19.5957 -0.113551 20.3029 -0.0996009 20.7444 0.341866L28.4471 8.04453C28.9028 8.50033 28.9029 9.23922 28.4471 9.695L15.3208 22.8212C14.81 23.332 14.1173 23.6188 13.3951 23.6188H6.33707C5.69251 23.6188 5.17009 23.0963 5.17004 22.4518V15.3938C5.17004 14.6717 5.45686 13.9788 5.96766 13.4681L19.0939 0.341866L19.1376 0.300292ZM17.1682 5.56854L23.2204 11.6207L25.9714 8.86976L19.9192 2.81756L17.1682 5.56854ZM7.5041 21.2845H13.3951C13.4983 21.2845 13.5973 21.2438 13.6704 21.1707L21.5699 13.2712L15.5177 7.219L7.61813 15.1185V15.1188C7.5453 15.1917 7.5041 15.2906 7.5041 15.3938V21.2845Z" fill="white"/>
</svg>
