<svg width="193" height="189" viewBox="0 0 193 189" fill="none" xmlns="http://www.w3.org/2000/svg">
<path d="M120.106 23.347L121.123 23.7429C164.009 40.755 185.563 89.3023 169.267 132.557L168.775 133.832C163.589 146.953 155.197 158.61 144.43 167.64C142.688 169.101 140.181 169.203 138.326 167.889C136.472 166.575 135.736 164.174 136.538 162.047L144.36 141.285C145.228 138.98 145.312 136.484 144.618 133.896C144.301 132.712 144.43 131.453 144.98 130.357C145.957 128.412 146.834 126.424 147.599 124.394C159.535 92.7133 143.523 57.0975 111.919 45.01C80.2551 33.262 44.721 49.4538 32.7842 81.1368C32.0921 82.9738 31.4905 84.843 30.9766 86.735L30.9078 86.9647C30.5393 88.1027 29.7738 89.0739 28.7469 89.6977C26.2269 91.228 24.4609 93.2825 23.5272 95.7604L16.0828 115.52L16.0028 115.718C15.1409 117.742 13.048 118.973 10.8456 118.726C8.57226 118.471 6.76173 116.705 6.44979 114.439C4.53208 100.507 6.132 86.2095 11.1185 72.9741C27.5425 29.3809 76.4044 7.11356 120.063 23.3309L120.106 23.347Z" fill="black" stroke="white" stroke-width="10" stroke-linejoin="round"/>
<path d="M63.3664 87.4597L63.6043 87.5566C66.0296 88.6132 67.2257 91.398 66.2825 93.9014L44.071 152.856C43.0974 155.44 40.2134 156.746 37.6293 155.772L27.925 152.116C20.7535 149.414 14.7879 144.935 11.0278 139.632C7.28844 134.357 5.44103 127.753 7.82191 121.433L18.3107 93.5936C18.9052 92.0156 19.7252 90.58 20.7202 89.295L20.7208 89.2932L21.0485 88.8834C24.4891 84.7113 29.7014 82.3736 35.2031 81.5608C40.9341 80.7141 47.3881 81.4398 53.6621 83.8036L63.3664 87.4597Z" fill="black" stroke="white" stroke-width="10" stroke-linejoin="round"/>
<path d="M129.877 112.518C136.355 114.959 141.792 118.922 145.446 123.654C149.075 128.351 151.185 134.165 150.121 140.031L149.975 140.75C149.814 141.473 149.6 142.211 149.321 142.952L138.832 170.792C136.475 177.049 130.87 180.845 124.674 182.407C118.455 183.975 111.157 183.474 104.14 180.83L94.7123 177.279C92.1281 176.305 90.8225 173.421 91.7961 170.837L114.008 111.882L114.105 111.644C115.161 109.219 117.946 108.023 120.449 108.966L129.877 112.518Z" fill="black" stroke="white" stroke-width="10" stroke-linejoin="round"/>
</svg>
