<svg width="180" height="177" viewBox="0 0 180 177" fill="none" xmlns="http://www.w3.org/2000/svg">
<path fill-rule="evenodd" clip-rule="evenodd" d="M34.5395 33.1326C30.2603 33.803 26.4173 36.1319 23.8443 39.6141C21.2668 43.1025 20.1726 47.4664 20.7997 51.7559L30.9939 119.4L141.013 102.819L130.812 35.1345L130.81 35.1164C130.506 33.0027 129.787 30.97 128.694 29.1352C127.601 27.3005 126.155 25.6997 124.44 24.4253C122.726 23.151 120.775 22.2282 118.702 21.7099C116.693 21.2078 114.607 21.0949 112.557 21.3766L112.359 21.4053L34.5395 33.1326ZM125.642 56.9951C123.283 55.2559 119.959 55.7569 118.217 58.1141L107.83 72.1714C108.129 70.2786 107.389 68.2889 105.739 67.0727C103.417 65.3607 100.159 65.8193 98.3965 68.0826L98.3137 68.1917L83.3953 88.3822C81.6535 90.7394 82.154 94.0605 84.5131 95.7998C86.8354 97.5118 90.093 97.0531 91.8555 94.7899L91.9383 94.6808L102.325 80.6233C102.026 82.516 102.766 84.5057 104.416 85.722C106.775 87.4612 110.1 86.9602 111.841 84.6029L126.76 64.4124C128.501 62.0552 128.001 58.7344 125.642 56.9951Z" fill="white"/>
<path d="M29.2457 138.264L149.053 120.208L143.422 113.184L31.9387 129.985L29.2457 138.264Z" fill="white"/>
<path d="M27.1967 149.306C26.3939 149.473 25.6774 149.926 25.1826 150.584C25.0666 150.821 24.9344 151.046 24.7878 151.259C24.5378 151.829 24.4477 152.461 24.5359 153.087L24.6013 153.521C24.7414 154.395 25.2191 155.179 25.9322 155.704C26.6453 156.23 27.5366 156.455 28.414 156.331L155.813 137.132C156.688 136.992 157.473 136.514 157.999 135.801C158.528 135.086 158.753 134.192 158.626 133.313L158.564 132.898L158.534 132.735C158.365 131.923 157.902 131.2 157.231 130.705C156.56 130.21 155.732 129.982 154.905 130.06L154.74 130.079L27.3605 149.276L27.1967 149.306Z" fill="white"/>
<path fill-rule="evenodd" clip-rule="evenodd" d="M111.113 10.8672L110.785 10.9142L32.947 22.6446L32.9356 22.6467C25.8802 23.7417 19.5421 27.576 15.3013 33.3155C11.0605 39.0549 9.26013 46.2348 10.2919 53.2922L21.5092 127.725L15.5855 145.937C14.1523 148.57 13.5942 151.61 14.0262 154.611L14.0285 154.628L14.1065 155.145L14.1094 155.162C14.6813 158.796 16.6628 162.057 19.6249 164.241C22.5869 166.425 26.2912 167.355 29.9357 166.83L157.452 147.613C161.09 147.04 164.356 145.06 166.543 142.1C168.73 139.14 169.661 135.439 169.137 131.799L169.135 131.782L169.057 131.264L169.054 131.247C168.609 128.422 167.313 125.823 165.366 123.779C165.219 123.484 165.043 123.199 164.836 122.927L164.752 122.819L152.455 107.478L141.316 33.57C140.811 30.0848 139.623 26.7333 137.82 23.7072C136.011 20.6707 133.618 18.0219 130.78 15.913C127.942 13.8041 124.714 12.2766 121.283 11.4187C117.958 10.5877 114.506 10.4009 111.113 10.8672ZM25.1826 150.584C25.6774 149.926 26.3939 149.473 27.1967 149.306L27.3605 149.276L154.74 130.079L154.905 130.06C155.732 129.982 156.56 130.21 157.231 130.705C157.902 131.2 158.365 131.923 158.534 132.735L158.564 132.898L158.626 133.313C158.753 134.192 158.528 135.086 157.999 135.801C157.473 136.514 156.688 136.992 155.813 137.132L28.414 156.331C27.5366 156.455 26.6453 156.23 25.9322 155.704C25.2191 155.179 24.7414 154.395 24.6013 153.521L24.5359 153.087C24.4477 152.461 24.5378 151.829 24.7878 151.259C24.9344 151.046 25.0666 150.821 25.1826 150.584ZM149.053 120.208L29.2457 138.264L31.9387 129.985L143.422 113.184L149.053 120.208ZM23.8443 39.6141C26.4173 36.1319 30.2603 33.803 34.5395 33.1326L112.359 21.4053L112.557 21.3766C114.607 21.0949 116.693 21.2078 118.702 21.7099C120.775 22.2282 122.726 23.151 124.44 24.4253C126.155 25.6997 127.601 27.3005 128.694 29.1352C129.787 30.97 130.506 33.0027 130.81 35.1164L130.812 35.1345L141.013 102.819L30.9939 119.4L20.7997 51.7559C20.1726 47.4664 21.2668 43.1025 23.8443 39.6141Z" fill="black"/>
<path d="M118.217 58.1141C119.959 55.7569 123.283 55.2559 125.642 56.9951C128.001 58.7344 128.501 62.0552 126.76 64.4124L111.841 84.6029C110.1 86.9602 106.775 87.4612 104.416 85.722C102.766 84.5057 102.026 82.516 102.325 80.6233L91.9383 94.6808L91.8555 94.7899C90.093 97.0531 86.8354 97.5118 84.5131 95.7998C82.154 94.0605 81.6535 90.7394 83.3953 88.3822L98.3137 68.1917L98.3965 68.0826C100.159 65.8193 103.417 65.3607 105.739 67.0727C107.389 68.2889 108.129 70.2786 107.83 72.1714L118.217 58.1141Z" fill="#8367C7"/>
<path d="M174.086 131.082L174.092 131.128L174.094 131.146C174.765 135.915 173.598 140.756 170.837 144.691L170.564 145.071C167.596 149.088 163.164 151.776 158.23 152.552L30.649 171.779C25.8592 172.469 20.9919 171.306 17.0374 168.538L16.6576 168.265C12.6374 165.301 9.9465 160.874 9.16983 155.94L9.17065 155.939L9.16881 155.933L9.07785 155.33L9.07227 155.286C8.51912 151.391 9.19547 147.449 10.9609 143.991L16.3888 127.3L5.34446 54.0155L5.2401 53.2313C4.25832 45.122 6.41238 36.9318 11.2797 30.3443L11.7584 29.7131C16.7588 23.2838 24.0278 18.9905 32.0926 17.7189L32.1367 17.7103L110.076 5.96454L110.404 5.9181L110.432 5.91388C114.205 5.39531 118.04 5.55741 121.754 6.39205L122.495 6.56784L123.256 6.7682C127.043 7.81493 130.605 9.554 133.762 11.8995L134.387 12.3762C137.481 14.7962 140.102 17.7693 142.115 21.1476L142.508 21.8262C144.423 25.229 145.696 28.9572 146.26 32.8244L157.197 105.4L168.653 119.692L168.676 119.72L168.699 119.749L168.783 119.857L168.799 119.878L168.816 119.9C169.045 120.201 169.252 120.513 169.443 120.83C171.818 123.508 173.406 126.824 173.982 130.411L173.983 130.411L173.987 130.428L173.994 130.473L174.086 131.082Z" stroke="white" stroke-width="10" stroke-miterlimit="10" stroke-linecap="round"/>
</svg>
