<svg width="76" height="112" viewBox="0 0 76 112" fill="none" xmlns="http://www.w3.org/2000/svg">
<path d="M44.8213 5.72852C46.6967 5.32008 48.6506 5.46043 50.4482 6.13281L50.8311 6.28516L51.207 6.45312C52.9433 7.2712 54.4071 8.57216 55.4238 10.1992L55.6348 10.5527L55.8311 10.915C56.7104 12.6199 57.0806 14.5418 56.8984 16.4512L56.8516 16.8604L56.8457 16.8994L53.3232 41.2656L64.998 47.0576H64.9971C66.1006 47.6049 67.0924 48.3505 67.9229 49.2559L68.2686 49.6533L68.5928 50.0693C69.2189 50.9159 69.7082 51.8557 70.041 52.8545L70.1943 53.3584L70.2598 53.6221L70.3623 54.1465C70.5683 55.3748 70.5433 56.6325 70.2871 57.8545C70.0114 59.1692 69.4706 60.4123 68.7041 61.5137L68.7051 61.5146L41.7422 101.996L41.7432 101.997C40.8382 103.373 39.6069 104.503 38.1592 105.289C36.7337 106.063 35.1417 106.476 33.5205 106.497L33.5215 106.498C33.5147 106.498 33.5078 106.497 33.501 106.497C33.4822 106.497 33.4631 106.499 33.4443 106.499L33.4434 106.497C32.1845 106.511 30.9364 106.278 29.7676 105.812V105.813C29.7419 105.804 29.717 105.791 29.6914 105.781C29.6759 105.775 29.6591 105.77 29.6436 105.764V105.762C27.5965 104.938 25.8774 103.462 24.7578 101.559C23.6155 99.6166 23.1628 97.3456 23.4717 95.1143L23.4775 95.0732L26.9424 71.3652L11.7646 65.2812C11.7559 65.2778 11.747 65.274 11.7383 65.2705C10.3033 64.6866 9.02403 63.7771 8.00098 62.6143C6.98606 61.4606 6.25149 60.0886 5.85254 58.6055L5.85156 58.6064C5.44765 57.1238 5.39113 55.5678 5.68555 54.0596L5.74414 53.7783C6.0602 52.375 6.67577 51.0549 7.5498 49.9092L7.58008 49.8701L39.0557 9.3623L39.3154 9.04199C40.6427 7.47224 42.4248 6.34695 44.4209 5.8252L44.8213 5.72852Z" fill="black" stroke="#FBFBFB" stroke-width="11" stroke-linejoin="round"/>
</svg>
