<svg width="28" height="25" viewBox="0 0 28 25" fill="none" xmlns="http://www.w3.org/2000/svg">
<path d="M25.258 12.7618L14.6738 2.17763C16.0728 0.791851 17.963 0.0155313 19.9322 0.0180113C20.915 0.0168413 21.8882 0.210011 22.796 0.586441C23.7039 0.962871 24.5283 1.51513 25.2219 2.21141C26.6202 3.60868 27.4089 5.50244 27.4156 7.47917C27.4224 9.4559 26.6467 11.355 25.258 12.7618Z" fill="#8367C7"/>
<path d="M13.7153 24.2963L3.13107 13.7121L2.19433 12.7776C1.49872 12.083 0.946874 11.2581 0.570355 10.35C0.193837 9.4419 0 8.4685 0 7.48549C0 6.50246 0.193837 5.52908 0.570355 4.62102C0.946874 3.71295 1.49872 2.88801 2.19433 2.1934C2.88849 1.49726 3.71327 0.945124 4.62145 0.568714C5.52963 0.192304 6.50333 -0.000976292 7.48642 3.70809e-06C8.46884 -0.000866292 9.44165 0.192484 10.3491 0.568904C11.2565 0.945334 12.0807 1.49739 12.774 2.1934L13.7085 3.12797C15.1002 4.51674 16.2044 6.16625 16.958 7.98215C17.7117 9.798 18.0999 11.7447 18.1005 13.7107C18.1011 15.6768 17.7141 17.6237 16.9617 19.4401C16.2092 21.2565 15.106 22.9067 13.7153 24.2963Z" fill="#8367C7"/>
</svg>
