<svg width="95" height="96" viewBox="0 0 95 96" fill="none" xmlns="http://www.w3.org/2000/svg">
<path d="M50.9666 10.811C52.6966 10.3637 54.5351 10.7522 55.9362 11.8611C57.1726 12.8395 57.6384 14.1981 57.8532 14.8924C58.0967 15.6793 58.3059 16.6768 58.5167 17.6635L62.0344 34.1329L78.7494 39.5538C79.4617 39.7874 80.1488 40.0225 80.7162 40.2646C81.3734 40.5451 82.6449 41.1333 83.4909 42.4217L83.5308 42.4836L83.5314 42.4844L83.5757 42.5554C84.4954 44.0524 84.6774 45.892 84.0663 47.5436C83.5185 49.0245 82.3717 49.8888 81.779 50.3081C81.107 50.7835 80.2243 51.2917 79.3526 51.7979L64.7979 60.2494L64.805 77.8496C64.8029 78.6005 64.7915 79.3279 64.7365 79.9433C64.6719 80.6671 64.5011 82.0938 63.497 83.3117C62.3589 84.6922 60.6427 85.4605 58.8577 85.3887L58.8568 85.3888C57.2825 85.3251 56.1086 84.5009 55.5274 84.066C54.8686 83.5731 54.1139 82.8898 53.3642 82.2159L40.8511 70.9692L24.8581 76.1927C23.8999 76.5056 22.9332 76.8252 22.1313 77.0095C21.4237 77.1721 20.0169 77.4509 18.5515 76.8723L18.5507 76.8719C16.8902 76.2159 15.6306 74.8198 15.148 73.096L15.1286 73.0248C14.7354 71.5331 15.1471 70.1911 15.3772 69.5138C15.6421 68.7337 16.0583 67.8031 16.4669 66.8804L23.2876 51.4782L13.3964 37.8616C12.8039 37.046 12.2022 36.2241 11.78 35.5175C11.4075 34.8942 10.7084 33.64 10.8062 32.0643C10.9173 30.2785 11.8556 28.6461 13.3429 27.6531C14.6549 26.7773 16.0892 26.7528 16.8148 26.7624C17.6373 26.7732 18.6493 26.8815 19.6514 26.9849L36.3798 28.7123L46.7032 14.4622C47.1456 13.8556 47.5816 13.2736 47.9874 12.8077C48.4647 12.2597 49.4401 11.2056 50.9666 10.811ZM42.2886 33.5482C42.0632 33.8593 41.4857 34.7318 40.6388 35.3497C39.9919 35.8214 39.2528 36.1525 38.4698 36.3206C37.4453 36.5404 36.4118 36.389 36.0301 36.3496L20.565 34.7527L29.7094 47.3411C29.929 47.6432 30.5445 48.4204 30.8776 49.3746L30.9089 49.4675L30.9096 49.4696C31.1491 50.2067 31.2367 50.9853 31.1667 51.7583L31.1594 51.8332L31.1482 51.931C31.0222 52.935 30.5824 53.8259 30.4316 54.1664L24.1258 68.4053L38.9107 63.5765L39.0764 63.5211C39.5244 63.3706 40.385 63.0915 41.2995 63.0895L41.305 63.0896L41.3798 63.0901C42.128 63.0993 42.867 63.2555 43.5549 63.5496L43.6236 63.5795L43.6286 63.5817C44.5835 64.0065 45.3276 64.7339 45.6162 64.9934L57.1839 75.3904L57.1773 59.8181L57.1759 59.6439C57.1717 59.1717 57.173 58.2627 57.4559 57.389C57.7032 56.6247 58.1077 55.9236 58.6403 55.3291L58.7067 55.2566C59.3981 54.5171 60.2783 54.0541 60.5983 53.8682L74.0541 46.0548L59.2648 41.2592C58.8995 41.1407 57.8932 40.8608 57.0454 40.2454L57.0445 40.2449C56.399 39.7761 55.857 39.1758 55.4558 38.4817C54.9303 37.5735 54.7548 36.5406 54.6748 36.1665L54.6745 36.1652L51.4223 20.9393L42.2886 33.5482Z" fill="black"/>
<path d="M42.2886 33.5482C42.0632 33.8593 41.4857 34.7318 40.6388 35.3497C39.9919 35.8214 39.2528 36.1525 38.4698 36.3206C37.4453 36.5404 36.4118 36.389 36.0301 36.3496L20.565 34.7527L29.7094 47.3411C29.929 47.6432 30.5445 48.4204 30.8776 49.3746L30.9089 49.4675L30.9096 49.4696C31.1491 50.2067 31.2367 50.9853 31.1667 51.7583L31.1594 51.8332L31.1482 51.931C31.0222 52.935 30.5824 53.8259 30.4316 54.1664L24.1258 68.4053L38.9107 63.5765L39.0764 63.5211C39.5244 63.3706 40.385 63.0915 41.2995 63.0895L41.305 63.0896L41.3798 63.0901C42.128 63.0993 42.867 63.2555 43.5549 63.5496L43.6236 63.5795L43.6286 63.5817C44.5835 64.0065 45.3276 64.7339 45.6162 64.9934L57.1839 75.3904L57.1773 59.8181L57.1759 59.6439C57.1717 59.1717 57.173 58.2627 57.4559 57.389C57.7032 56.6247 58.1077 55.9236 58.6403 55.3291L58.7067 55.2566C59.3981 54.5171 60.2783 54.0541 60.5983 53.8682L74.0541 46.0548L59.2648 41.2592C58.8995 41.1407 57.8932 40.8608 57.0454 40.2454L57.0445 40.2449C56.399 39.7761 55.857 39.1758 55.4558 38.4817C54.9303 37.5735 54.7548 36.5406 54.6748 36.1665L54.6745 36.1652L51.4223 20.9393L42.2886 33.5482Z" fill="white"/>
<path d="M50.0195 5.89601C53.1751 5.17773 56.4923 5.92533 59.0387 7.9405L59.2687 8.12782C61.589 10.0813 62.3737 12.5854 62.6302 13.4145L62.7486 13.8178C63.0188 14.7748 63.2388 15.8344 63.4064 16.6188L66.3208 30.2661L80.2924 34.7973L80.3072 34.8025C81.0216 35.0367 81.8925 35.3303 82.679 35.6659L83.0572 35.8317C84.0618 36.2872 86.0309 37.3268 87.5083 39.4382L87.6705 39.6771L87.6923 39.7106L87.7321 39.7729L87.733 39.7731L87.7328 39.7741L87.7718 39.8352L87.8157 39.9064L87.8358 39.9386L87.9934 40.2035C89.5279 42.8701 89.8435 46.0706 88.8582 48.988L88.7558 49.2788C87.7883 51.8939 85.9431 53.4492 85.0069 54.144L84.6666 54.3895C84.2174 54.7073 83.7146 55.0255 83.225 55.3216L81.8631 56.1218L69.7989 63.1267L69.8046 77.8472L69.8052 77.8633L69.8007 78.4563C69.7934 79.0724 69.7739 79.7492 69.7169 80.3879L69.6756 80.8054C69.5503 81.9225 69.1576 84.173 67.5397 86.261L67.355 86.4924C65.224 89.0772 62.0065 90.5193 58.6564 90.3847L58.6557 90.3835L58.6545 90.3843C55.8678 90.2715 53.8187 88.9945 52.8699 88.3176L52.532 88.0695C52.0916 87.74 51.6346 87.3588 51.2023 86.9841L50.0216 85.9351L39.6574 76.6185L26.4101 80.946C25.6483 81.1948 24.622 81.5364 23.6591 81.7831L23.2508 81.8824C22.4049 82.0769 19.8461 82.6559 16.9924 81.6281L16.7153 81.5226L16.7136 81.5212L16.7134 81.5222C13.6952 80.3297 11.3851 77.8351 10.4219 74.745L10.3328 74.4437C10.3299 74.4332 10.3274 74.4226 10.3246 74.4121L10.3048 74.34C10.3012 74.3265 10.297 74.3132 10.2934 74.2997C9.50157 71.2959 10.3592 68.7423 10.6433 67.9058L10.7828 67.51C11.1258 66.5768 11.5696 65.5895 11.8947 64.8554L17.5494 52.0855L9.35088 40.8001C8.8802 40.1521 8.23874 39.2802 7.70766 38.4397L7.48763 38.0827C7.02765 37.313 5.61804 34.9346 5.8154 31.7546L5.81561 31.7537C6.02347 28.4121 7.77963 25.3559 10.567 23.495L10.8156 23.334C13.3893 21.7262 16.0126 21.7515 16.8808 21.7629L17.2998 21.7736C18.2932 21.8113 19.3686 21.9294 20.165 22.0117L34.0232 23.4417L42.6538 11.5292L42.6635 11.5162L43.0139 11.0393C43.3815 10.5446 43.7949 10.0078 44.2164 9.52372L44.4953 9.21033C45.2807 8.34874 47.0154 6.66842 49.7153 5.97048L50.0195 5.89601Z" stroke="white" stroke-width="10" stroke-linecap="round" stroke-linejoin="round"/>
</svg>
